<svg width="220" height="66" viewBox="0 0 220 66" fill="none" xmlns="http://www.w3.org/2000/svg">
<path d="M63.8 54V25.2H68.62V38.56L80.12 25.2H86.04L73.66 39.32L86.88 54H80.76L68.62 40.56V54H63.8ZM95.7384 54.6C94.1784 54.6 92.8584 54.3067 91.7784 53.72C90.6984 53.12 89.8784 52.3267 89.3184 51.34C88.7718 50.3533 88.4984 49.2667 88.4984 48.08C88.4984 47.04 88.6718 46.1067 89.0184 45.28C89.3651 44.44 89.8984 43.72 90.6184 43.12C91.3384 42.5067 92.2718 42.0067 93.4184 41.62C94.2851 41.34 95.2984 41.0867 96.4584 40.86C97.6318 40.6333 98.8984 40.4267 100.258 40.24C101.632 40.04 103.065 39.8267 104.558 39.6L102.838 40.58C102.852 39.0867 102.518 37.9867 101.838 37.28C101.158 36.5733 100.012 36.22 98.3984 36.22C97.4251 36.22 96.4851 36.4467 95.5784 36.9C94.6718 37.3533 94.0384 38.1333 93.6784 39.24L89.2784 37.86C89.8118 36.0333 90.8251 34.5667 92.3184 33.46C93.8251 32.3533 95.8518 31.8 98.3984 31.8C100.318 31.8 102.005 32.1133 103.458 32.74C104.925 33.3667 106.012 34.3933 106.718 35.82C107.105 36.58 107.338 37.36 107.418 38.16C107.498 38.9467 107.538 39.8067 107.538 40.74V54H103.318V49.32L104.018 50.08C103.045 51.64 101.905 52.7867 100.598 53.52C99.3051 54.24 97.6851 54.6 95.7384 54.6ZM96.6984 50.76C97.7918 50.76 98.7251 50.5667 99.4984 50.18C100.272 49.7933 100.885 49.32 101.338 48.76C101.805 48.2 102.118 47.6733 102.278 47.18C102.532 46.5667 102.672 45.8667 102.698 45.08C102.738 44.28 102.758 43.6333 102.758 43.14L104.238 43.58C102.785 43.8067 101.538 44.0067 100.498 44.18C99.4584 44.3533 98.5651 44.52 97.8184 44.68C97.0718 44.8267 96.4118 44.9933 95.8384 45.18C95.2784 45.38 94.8051 45.6133 94.4184 45.88C94.0318 46.1467 93.7318 46.4533 93.5184 46.8C93.3184 47.1467 93.2184 47.5533 93.2184 48.02C93.2184 48.5533 93.3518 49.0267 93.6184 49.44C93.8851 49.84 94.2718 50.16 94.7784 50.4C95.2984 50.64 95.9384 50.76 96.6984 50.76ZM127.685 54V43.6C127.685 42.92 127.639 42.1667 127.545 41.34C127.452 40.5133 127.232 39.72 126.885 38.96C126.552 38.1867 126.045 37.5533 125.365 37.06C124.699 36.5667 123.792 36.32 122.645 36.32C122.032 36.32 121.425 36.42 120.825 36.62C120.225 36.82 119.679 37.1667 119.185 37.66C118.705 38.14 118.319 38.8067 118.025 39.66C117.732 40.5 117.585 41.58 117.585 42.9L114.725 41.68C114.725 39.84 115.079 38.1733 115.785 36.68C116.505 35.1867 117.559 34 118.945 33.12C120.332 32.2267 122.039 31.78 124.065 31.78C125.665 31.78 126.985 32.0467 128.025 32.58C129.065 33.1133 129.892 33.7933 130.505 34.62C131.119 35.4467 131.572 36.3267 131.865 37.26C132.159 38.1933 132.345 39.08 132.425 39.92C132.519 40.7467 132.565 41.42 132.565 41.94V54H127.685ZM112.705 54V32.4H117.005V39.1H117.585V54H112.705ZM143.624 54L135.784 32.4H140.604L146.044 48.06L151.464 32.4H156.304L148.464 54H143.624ZM164.723 54.6C163.163 54.6 161.843 54.3067 160.763 53.72C159.683 53.12 158.863 52.3267 158.303 51.34C157.756 50.3533 157.483 49.2667 157.483 48.08C157.483 47.04 157.656 46.1067 158.003 45.28C158.349 44.44 158.883 43.72 159.603 43.12C160.323 42.5067 161.256 42.0067 162.403 41.62C163.269 41.34 164.283 41.0867 165.443 40.86C166.616 40.6333 167.883 40.4267 169.243 40.24C170.616 40.04 172.049 39.8267 173.543 39.6L171.823 40.58C171.836 39.0867 171.503 37.9867 170.823 37.28C170.143 36.5733 168.996 36.22 167.383 36.22C166.409 36.22 165.469 36.4467 164.563 36.9C163.656 37.3533 163.023 38.1333 162.663 39.24L158.263 37.86C158.796 36.0333 159.809 34.5667 161.303 33.46C162.809 32.3533 164.836 31.8 167.383 31.8C169.303 31.8 170.989 32.1133 172.443 32.74C173.909 33.3667 174.996 34.3933 175.703 35.82C176.089 36.58 176.323 37.36 176.403 38.16C176.483 38.9467 176.523 39.8067 176.523 40.74V54H172.303V49.32L173.003 50.08C172.029 51.64 170.889 52.7867 169.583 53.52C168.289 54.24 166.669 54.6 164.723 54.6ZM165.683 50.76C166.776 50.76 167.709 50.5667 168.483 50.18C169.256 49.7933 169.869 49.32 170.323 48.76C170.789 48.2 171.103 47.6733 171.263 47.18C171.516 46.5667 171.656 45.8667 171.683 45.08C171.723 44.28 171.743 43.6333 171.743 43.14L173.223 43.58C171.769 43.8067 170.523 44.0067 169.483 44.18C168.443 44.3533 167.549 44.52 166.803 44.68C166.056 44.8267 165.396 44.9933 164.823 45.18C164.263 45.38 163.789 45.6133 163.403 45.88C163.016 46.1467 162.716 46.4533 162.503 46.8C162.303 47.1467 162.203 47.5533 162.203 48.02C162.203 48.5533 162.336 49.0267 162.603 49.44C162.869 49.84 163.256 50.16 163.763 50.4C164.283 50.64 164.923 50.76 165.683 50.76ZM181.73 54V32.4H185.99V37.66L185.47 36.98C185.736 36.26 186.09 35.6067 186.53 35.02C186.983 34.42 187.523 33.9267 188.15 33.54C188.683 33.18 189.27 32.9 189.91 32.7C190.563 32.4867 191.23 32.36 191.91 32.32C192.59 32.2667 193.25 32.2933 193.89 32.4V36.9C193.25 36.7133 192.51 36.6533 191.67 36.72C190.843 36.7867 190.096 37.02 189.43 37.42C188.763 37.78 188.216 38.24 187.79 38.8C187.376 39.36 187.07 40 186.87 40.72C186.67 41.4267 186.57 42.1933 186.57 43.02V54H181.73ZM206.856 54.6C204.696 54.6 202.809 54.1133 201.196 53.14C199.582 52.1667 198.329 50.8267 197.436 49.12C196.556 47.4 196.116 45.4267 196.116 43.2C196.116 40.9333 196.569 38.9467 197.476 37.24C198.382 35.5333 199.642 34.2 201.256 33.24C202.869 32.28 204.736 31.8 206.856 31.8C209.029 31.8 210.922 32.2867 212.536 33.26C214.149 34.2333 215.402 35.58 216.296 37.3C217.189 39.0067 217.636 40.9733 217.636 43.2C217.636 45.44 217.182 47.42 216.276 49.14C215.382 50.8467 214.129 52.1867 212.516 53.16C210.902 54.12 209.016 54.6 206.856 54.6ZM206.856 50.08C208.776 50.08 210.202 49.44 211.136 48.16C212.069 46.88 212.536 45.2267 212.536 43.2C212.536 41.1067 212.062 39.44 211.116 38.2C210.169 36.9467 208.749 36.32 206.856 36.32C205.562 36.32 204.496 36.6133 203.656 37.2C202.829 37.7733 202.216 38.58 201.816 39.62C201.416 40.6467 201.216 41.84 201.216 43.2C201.216 45.2933 201.689 46.9667 202.636 48.22C203.596 49.46 205.002 50.08 206.856 50.08Z" fill="url(#paint0_linear_3916_261)"/>
<path d="M0 0V0C8.83656 0 16 7.16344 16 16V55V55C7.16344 55 0 47.8366 0 39V0Z" fill="url(#paint1_linear_3916_261)"/>
<path d="M34.4 55C25.8948 55 19 48.1052 19 39.6V39.6H35.6C44.1052 39.6 51 46.4948 51 55V55H34.4Z" fill="#244E9B"/>
<path d="M19 35.4004V35.4004C19 26.8952 25.8948 20.0004 34.4 20.0004L51 20.0004V20.0004C51 28.5056 44.1052 35.4004 35.6 35.4004H19Z" fill="#3FADA5"/>
<path d="M19 35.4004V35.4004C19 26.8952 25.8948 20.0004 34.4 20.0004L51 20.0004V20.0004C51 28.5056 44.1052 35.4004 35.6 35.4004H19Z" fill="#3FADA5"/>
<defs>
<linearGradient id="paint0_linear_3916_261" x1="220" y1="40.9215" x2="61" y2="36.0785" gradientUnits="userSpaceOnUse">
<stop stop-color="#3FADA5"/>
<stop offset="1" stop-color="#244E9B"/>
</linearGradient>
<linearGradient id="paint1_linear_3916_261" x1="8" y1="0" x2="8" y2="55" gradientUnits="userSpaceOnUse">
<stop stop-color="#3FADA5"/>
<stop offset="1" stop-color="#26559B"/>
</linearGradient>
</defs>
</svg>
